<svg width="24" height="24" viewBox="0 0 24 24" fill="none" xmlns="http://www.w3.org/2000/svg">
<g clip-path="url(#clip0_51_21)">
<path fill-rule="evenodd" clip-rule="evenodd" d="M10.875 7.5H11.25V11.25H10.875C9.83947 11.25 9 10.4105 9 9.375C9 8.33947 9.83947 7.5 10.875 7.5V7.5ZM13.875 12.75H12.75V16.5H13.875C14.9105 16.5 15.75 15.6605 15.75 14.625C15.75 13.5895 14.9105 12.75 13.875 12.75V12.75ZM21.75 12C21.75 17.3848 17.3848 21.75 12 21.75C6.61522 21.75 2.25 17.3848 2.25 12C2.25 6.61522 6.61522 2.25 12 2.25C17.3824 2.25568 21.7443 6.61758 21.75 12V12ZM17.25 14.625C17.25 12.761 15.739 11.25 13.875 11.25H12.75V7.5H13.125C14.1605 7.5 15 8.33947 15 9.375C15 9.78921 15.3358 10.125 15.75 10.125C16.1642 10.125 16.5 9.78921 16.5 9.375C16.5 7.51104 14.989 6 13.125 6H12.75V5.25C12.75 4.83579 12.4142 4.5 12 4.5C11.5858 4.5 11.25 4.83579 11.25 5.25V6H10.875C9.01104 6 7.5 7.51104 7.5 9.375C7.5 11.239 9.01104 12.75 10.875 12.75H11.25V16.5H10.5C9.46447 16.5 8.625 15.6605 8.625 14.625C8.625 14.2108 8.28921 13.875 7.875 13.875C7.46079 13.875 7.125 14.2108 7.125 14.625C7.125 16.489 8.63604 18 10.5 18H11.25V18.75C11.25 19.1642 11.5858 19.5 12 19.5C12.4142 19.5 12.75 19.1642 12.75 18.75V18H13.875C15.739 18 17.25 16.489 17.25 14.625V14.625Z" fill="#1C0D0D"/>
</g>
<defs>
<clipPath id="clip0_51_21">
<rect width="24" height="24" fill="white"/>
</clipPath>
</defs>
</svg>
